<mxfile host="app.diagrams.net" modified="2024-07-08T13:38:30.888Z" agent="Mozilla/5.0 (Windows NT 10.0; Win64; x64) AppleWebKit/537.36 (KHTML, like Gecko) Chrome/125.0.0.0 Safari/537.36" etag="gpRbVnmhl7X5NrJ1mx5s" version="24.6.4" type="github">
  <diagram name="第 1 页" id="tQ-AfsL5KjRh9j0H5AqX">
    <mxGraphModel dx="955" dy="714" grid="1" gridSize="10" guides="1" tooltips="1" connect="1" arrows="1" fold="1" page="1" pageScale="1" pageWidth="827" pageHeight="1169" math="0" shadow="0">
      <root>
        <mxCell id="0" />
        <mxCell id="1" parent="0" />
      </root>
    </mxGraphModel>
  </diagram>
</mxfile>
